<svg width="716" height="64" viewBox="0 0 716 64" fill="none" xmlns="http://www.w3.org/2000/svg">
<path d="M180.78 0.859985C161.82 0.859985 147.66 14.78 146.1 31.94C144.66 49.1 156.419 63.02 175.379 63.02C185.459 63.02 191.819 58.3407 196.859 54.7407L197.939 42.6197L199.138 29.7797C199.138 29.7797 173.458 29.7807 173.458 29.9008L172.259 42.8598H180.779L180.538 47.061C179.218 47.301 177.899 47.4203 176.699 47.4203C165.179 47.4203 162.9 37.7007 162.9 33.7404C162.9 30.0191 164.022 26.2987 166.165 23.2874C166.21 23.2244 166.262 23.1661 166.308 23.1038C166.567 22.7507 166.835 22.404 167.122 22.0726C167.266 21.907 167.424 21.7539 167.575 21.5941C167.778 21.3787 167.977 21.1596 168.193 20.9554C168.391 20.7676 168.606 20.5961 168.816 20.4183C169.013 20.2504 169.204 20.0767 169.411 19.9183C169.61 19.7655 169.824 19.6283 170.032 19.4847C170.269 19.3214 170.501 19.1531 170.749 19.0023C170.949 18.8801 171.163 18.7741 171.37 18.6605C171.647 18.5094 171.921 18.3543 172.21 18.2191C172.393 18.1332 172.588 18.062 172.776 17.9827C173.114 17.841 173.452 17.7 173.806 17.5804C173.965 17.5265 174.132 17.4851 174.294 17.4359C174.686 17.3174 175.081 17.2021 175.491 17.1116C175.658 17.0748 175.832 17.0518 176.001 17.0198C176.424 16.9403 176.849 16.8656 177.29 16.8167C177.719 16.7692 178.155 16.7358 178.601 16.719C178.845 16.71 179.09 16.6995 179.339 16.6995C185.579 16.6995 191.938 19.9408 196.618 23.0608L197.938 6.61981C193.498 3.01981 187.618 0.860016 180.778 0.860016L180.78 0.859985ZM230.776 0.859985C221.896 0.859985 204.856 5.78119 204.856 21.141C204.856 26.1414 206.346 29.5461 208.551 32.016C208.552 32.018 208.577 32.0609 208.577 32.0609H208.594C214.976 39.1437 227.295 38.4439 227.295 45.3809C227.295 47.3009 225.496 49.6993 220.456 49.6993C215.536 49.6993 209.775 46.9399 203.895 43.3399L202.455 59.9009C208.215 62.3009 217.455 63.1411 220.215 63.1411C225.375 63.1411 248.055 61.7005 248.055 42.5001C248.055 37.8737 246.477 34.5656 244.153 32.0611H244.215C243.181 30.9518 241.989 30.0133 240.727 29.1783C240.712 29.1681 240.696 29.1592 240.68 29.149C240.354 28.9344 240.029 28.7221 239.694 28.522C239.332 28.3039 238.965 28.0958 238.596 27.8931C237.942 27.5369 237.282 27.2004 236.618 26.8833C236.27 26.7165 235.927 26.5629 235.581 26.4048C235.408 26.3263 235.237 26.2472 235.065 26.1704C232.695 25.1103 230.408 24.2086 228.604 23.2408C228.544 23.2083 228.482 23.1758 228.422 23.1432C228.218 23.031 228.021 22.9162 227.831 22.8014C227.627 22.6782 227.434 22.5535 227.249 22.4264C227.098 22.3239 226.955 22.2195 226.817 22.1139C226.616 21.9599 226.427 21.803 226.254 21.6412C226.144 21.5384 226.034 21.4352 225.936 21.3287C225.912 21.3029 225.889 21.2766 225.866 21.2506C225.573 20.9192 225.34 20.569 225.176 20.194C225.16 20.1575 225.148 20.1196 225.133 20.0827C225.075 19.936 225.029 19.7841 224.993 19.6295C224.98 19.5743 224.966 19.5197 224.956 19.4635C224.92 19.2682 224.895 19.0689 224.895 18.86C224.895 16.1 227.776 14.3014 232.096 14.3014C237.736 14.3014 246.856 19.6998 246.856 19.6998L248.296 3.14081C243.136 1.82081 239.297 0.859985 230.776 0.859985ZM568.996 0.859985C551.356 0.859985 535.876 14.78 534.316 31.94C534.203 32.7342 534.199 33.4271 534.199 34.2095C534.198 34.2135 534.197 34.2175 534.197 34.2212V34.3403C534.077 50.4203 546.675 63.0204 563.595 63.0204C581.235 63.0204 596.717 49.1003 598.277 31.9403C599.717 14.7803 586.636 0.859985 568.996 0.859985ZM5.446 1.72522L0.0455933 62.2042H17.3266L19.2465 40.4852H21.5258L21.5824 40.6044H21.5258L31.8458 62.3254H51.8868L51.8282 62.2043H51.8868L40.8458 39.0463C50.4458 36.1663 55.4868 28.7253 55.4868 19.4853C55.4868 10.7253 48.4058 1.72528 38.4458 1.72528H17.4458L5.446 1.72522ZM62.669 1.72522L57.253 62.2212H74.536L79.954 1.72522H62.669ZM87.796 1.72522L82.3976 62.2042H99.6766L102.436 31.4852L120.916 62.2042H138.195L143.596 1.72522H126.317L123.452 32.2702L105.077 1.72522H87.796ZM289.956 1.72522L284.556 62.2042H301.835L304.594 31.4852L323.074 62.2042H340.353L345.754 1.72522H328.475L325.61 32.2702L307.235 1.72522H289.956ZM353.286 1.72522L352.206 14.6842L348.005 62.2042H391.325L392.524 49.2452H366.485L367.446 38.4442H384.485L385.684 25.4852H368.524L369.479 14.6842H395.28L396.479 1.72522H370.678H353.286ZM398.489 1.72522L397.288 14.6842H414.569L410.368 62.2042H427.768L431.967 14.6842H449.127L450.291 2.12323L461.496 62.2032H485.377L490.31 47.6562L492.338 62.2032H516.217L537.938 1.72424H519.817L503.737 49.9642L499.657 20.8042H499.416V20.6831H485.258L485.221 20.8042H485.137L475.897 50.6832L468.217 1.72424H415.768L398.489 1.72522ZM606.189 1.72522L600.789 62.2042H618.07L619.99 40.4852H622.269L622.325 40.6044H622.269L632.589 62.3254H652.63L652.571 62.2043H652.63L641.589 39.0463C651.189 36.1663 656.23 28.7253 656.23 19.4853C656.23 10.7253 649.149 1.72528 639.189 1.72528H618.189L606.189 1.72522ZM663.396 1.72522L657.996 62.2042H675.275L677.796 34.4852L683.435 46.7252L684.156 48.4049L690.515 62.2039H710.435L695.675 31.3639L715.956 1.72495H696.155L687.514 14.4439L678.274 28.0049L680.674 1.72592L663.396 1.72522ZM567.794 13.7002C575.714 13.7002 581.353 21.9804 580.513 31.9402C579.673 41.9002 572.474 50.0612 564.554 50.0612C557.114 50.0612 551.714 42.98 551.714 33.8602V33.26C551.834 32.78 551.833 32.4197 551.833 31.9397C552.793 21.9797 559.874 13.8207 567.794 13.8207C567.654 13.7854 567.518 13.7605 567.378 13.727C567.517 13.722 567.654 13.7002 567.794 13.7002ZM32.674 14.8057C35.674 14.8057 38.1935 17.9255 38.1935 20.5655C38.1935 23.2055 36.0345 27.7647 31.2345 27.7647H20.4335L21.6347 14.9247H32.6737L32.674 14.8057ZM633.424 14.8057C636.424 14.8057 638.943 17.9255 638.943 20.5655C638.943 23.2055 636.784 27.7647 631.984 27.7647H621.183L622.385 14.9247H633.424L633.424 14.8057Z" fill="black"/>
</svg>
